# xmcd
#
# Track frame offsets: 
#        150
#        13480
#        28941
#        43884
#        60187
#        74198
#        88285
#        105804
#        124299
#        139415
#        151969
#        170638
#
# Disc length: 2474 seconds
#
# Revision: 0
# Processed by: cddbd v1.5.2PL0 Copyright (c) Steve Scherf et al.
# Submitted via: ExactAudioCopyFreeDBPlugin 1.0
#
DISCID=b209a80c
DTITLE=Jill Johnson - Songs for Daddy
DYEAR=2014
DGENRE=Country
TTITLE0=CRAZY IN LOVE
TTITLE1=HALLELUJAH I LOVE HIM SO
TTITLE2=FLY ME TO THE MOON
TTITLE3=MOON RIVER
TTITLE4=SOMETHINGS GOTTA GIVE
TTITLE5=THAT'S LIFE
TTITLE6=LOVE IS HERE TO STAY
TTITLE7=THE VERY THOUGHT OF YOU
TTITLE8=NO OTHER DADDY BUT YOU
TTITLE9=AFTER YOU'VE GONE
TTITLE10=EVERYBODY LOVES SOMEBODY
TTITLE11=I CAN'T GIVE YOU ANYTHING BUT LOVE
EXTD=
EXTT0=
EXTT1=
EXTT2=
EXTT3=
EXTT4=
EXTT5=
EXTT6=
EXTT7=
EXTT8=
EXTT9=
EXTT10=
EXTT11=
PLAYORDER=
